<?xml version="1.0" encoding="UTF-8"?>
<svg id="Layer_1" xmlns="http://www.w3.org/2000/svg" version="1.1" xmlns:xlink="http://www.w3.org/1999/xlink" viewBox="0 0 404 404">
  <!-- Generator: Adobe Illustrator 29.7.1, SVG Export Plug-In . SVG Version: 2.1.1 Build 8)  -->
  <defs>
    <style>
      .st0 {
        fill: none;
      }

      .st1 {
        clip-path: url(#clippath-1);
      }

      .st2 {
        fill: #ff7f0d;
      }

      .st3 {
        clip-path: url(#clippath);
      }
    </style>
    <clipPath id="clippath">
      <rect class="st0" x="81.41" y="8.5" width="200" height="312.2"/>
    </clipPath>
    <clipPath id="clippath-1">
      <rect class="st0" x="57.41" y="187.36" width="289.17" height="208.14"/>
    </clipPath>
  </defs>
  <g class="st3">
    <path class="st2" d="M268.87,170.03c-3.74,3.34-7.78,6.41-11.17,10.08-6.1,6.59-7.17,12.2-2.59,19.76,4.28,7.08,9.64,13.53,14.86,19.98,8.12,10.03,12.45,21.14,10.86,34.17-.26,2.13-.53,4.33-1.28,6.31-9.49,25.13-27.54,41.75-54.04,53.45,4.8-6.68,8.58-11.19,11.49-16.21,2.85-4.91,4.82-10.33,8.21-17.79-6.84,3.26-11.3,5.74-16.01,7.54-20.14,7.68-38.7-.84-46.59-20.86-5.26-13.33-5.25-26.65-1.56-40.32,3.31-12.26,7.7-24.04,13.32-35.41,1.22-2.48,2.35-5.02,2.77-7.99-12.12,10.92-20.88,24.26-28.67,38.35-8.07,14.6-11.61,30.21-9.75,47.46-10.16.81-15.02-5.56-21.13-13.07-1.23,12.46.91,21.76,10.03,28.77-8.85,3.83-10.83,3.27-29.2-8.04,1.72,15.2,6.07,21.67,29.48,43.24-24-7.77-41.71-20.83-53.71-41.41-7.44-12.76-12.01-26.58-11.51-41.2.61-17.92,7.79-40,26.21-53.16-6.86,18.92-8.38,36.58.68,53.54,1.57-7.83,2.99-15.89,4.86-23.85,3.55-15.14,12.35-27.58,21.11-40.01,3.96-5.62,8.21-11.04,12.03-16.73,2.2-3.29,4.42-6.77,5.63-10.48,2.36-7.28,1.52-14.35-3.73-20.38-2.38-2.72-4.98-5.25-7.6-7.99,15.55.47,28.73,13.64,27.67,27.64-.21,2.8-.99,5.74-2.21,8.27-3.31,6.85-7.18,13.41-10.48,20.26-2.8,5.81-5.46,11.75-7.43,17.88-.86,2.67.16,5.94.45,11.18,5.66-6.77,10.01-11.55,13.88-16.69,7.61-10.11,15.48-20.08,20.55-31.85,7.34-17.04,6.29-30.11-7.31-44.8-7.89-8.52-16.57-16.31-24.69-24.63-3.78-3.88-7.22-8.11-10.5-12.43-13.26-17.45-9.02-46.33,12.29-61.39,2.76-1.94,6.38-2.68,10.45-2.72-1.52,1.75-3.05,3.47-4.54,5.24-14.32,16.89-13.17,30.44.6,46.48,5.57,6.49,12.89,11.62,19.84,16.78,11.6,8.62,24.03,16.18,35.25,25.24,18.22,14.71,23.52,34.7,20.7,57.28-1.79,14.36-8.36,26.74-16.36,38.53-3.45,5.07-6.64,10.36-9.47,15.8-4.64,8.91-5.49,18.51-3.9,28.32,2.07,12.73,12.36,21.04,25.24,20.55,8.28-.31,11.1-4.07,10.14-12.58-.64-5.6-2.42-10.42-8.68-14.63,10.89,2.54,13.18,4.97,15.75,15.71,4.91-5.64,3.9-11.46,1.79-17.04-1.11-2.94-3.41-5.51-5.44-8-1.82-2.25-4.18-4.07-6.03-6.29-6.32-7.6-8.07-16.6-3.96-25.23,6.5-13.65,17.71-22.32,33.39-24.63Z"/>
  </g>
  <g class="st1">
    <path class="st2" d="M565.1,205.17c3.93,8.22-1.49,17.86-10.55,18.84-17.79,1.91-34.94,3.52-51.79,6.69-23.7,4.48-47.05,11.1-69.52,20.05-23.82,9.48-47.3,19.82-70.89,29.87-9.43,4.01-14.86,11.1-16.04,21.41,0,.03-.01.06-.01.09-.23,2-3.18,1.91-3.34-.09-.48-6.26-1.12-13.41-1.83-12.82-11.69,9.68-24.83,16.99-38.39,23.66-23.5,11.56-48.47,18.64-73.97,23.65-18.71,3.68-37.65,6.71-56.62,8.44-15.88,1.44-31.96.82-47.95.63-7.92-.1-15.82-1.36-23.73-2.01-2.13-.17-4.27-.03-7.69-.03,9.84,8.38,20.64,11.24,31.61,12.28,4.96.46,9.95.56,15.1.51,3.92-.04,4.32,5.68.44,6.22-1.78.24-3.57.38-5.41.41-8.33.13-16.66.03-26.16.03,1.47,1.83,2.08,3.07,3.06,3.73,13.14,8.75,27.38,14.5,43.27,15.77,6.48.52,12.91,1.69,19.39,1.88,28.78.83,56.86-4.12,84.42-11.72,17.7-4.89,34.95-11.4,52.41-17.18.01,0,.03-.01.04-.01,1.47-.48,2.37,1.58,1.03,2.35-1.88,1.07-3.76,2.13-5.72,3-24.4,10.93-49.01,21.39-75.3,26.89-12.32,2.57-24.83,4.22-37.32,5.91-7.49,1.01-15.09,1.77-22.65,1.78-19.68.01-39.1-2.77-56.86-11.43-23.79-11.59-42.57-28.2-53.64-51.38-3.82-8.01-3.32-17.54,1.66-24.88,3.6-5.31,8.45-8.98,15.11-11.78l-3.1,5.51c-4.86,8.64-1.27,19.69,7.84,23.6.09.04.18.08.28.11,4.8,2.03,12.98,4.09,18.16,4.68,22.7,2.56,45.34,3.17,68.28.87,21.24-2.13,42.36-4.6,63.05-9.56,30.22-7.24,60-16.04,86.73-32.67,15.85-9.85,19.52-29.77-2.1-34.55-8.6-1.91-17.19-3.85-27.54-6.17,17.9-1.52,33.19,2.13,47.98,8.13,5.89,2.4,8.64,5.89,14.26,14.8,6.19,1.68,11.91-1.29,17.54-3.21,31.67-10.85,60.96-29.01,90.8-43.95,22.93-11.48,45.45-23.91,69.93-31.96,5.06-1.67,10.49-2.29,15.79-3.1,4.23-.64,8.14,1.09,10.87,3.98,3.71,3.91,6.84,8.11,9.06,12.72Z"/>
  </g>
</svg>